/* XPM */
static char *scid[] = {
/* columns rows colors chars-per-pixel */
"32 32 256 2 ",
"   c #201E5D",
".  c #1F1F57",
"X  c #211F5E",
"o  c #202058",
"O  c #2B214B",
"+  c #252161",
"@  c #2E2151",
"#  c #2B215C",
"$  c #262262",
"%  c #2E2342",
"&  c #2C225D",
"*  c #272363",
"=  c #35233A",
"-  c #382428",
";  c #3A2423",
":  c #392331",
">  c #312349",
",  c #3F2320",
"<  c #2E244E",
"1  c #2D235E",
"2  c #3C2520",
"3  c #2E235F",
"4  c #432418",
"5  c #3B2433",
"6  c #462510",
"7  c #392537",
"8  c #452514",
"9  c #282660",
"0  c #422522",
"q  c #472611",
"w  c #472616",
"e  c #482711",
"r  c #46271B",
"t  c #492812",
"y  c #31285E",
"u  c #4A2913",
"i  c #32295F",
"p  c #2C2B5F",
"a  c #502815",
"s  c #2D2C60",
"d  c #512916",
"f  c #4C2B15",
"g  c #332C5C",
"h  c #4A2D15",
"j  c #372C57",
"k  c #342D5D",
"l  c #4F2D17",
"z  c #352E5E",
"x  c #3F2D4F",
"c  c #392E59",
"v  c #333059",
"b  c #552D14",
"n  c #35315B",
"m  c #572E15",
"M  c #582F16",
"N  c #3B3358",
"B  c #3C3359",
"V  c #46334B",
"C  c #403455",
"Z  c #583418",
"A  c #413556",
"S  c #3D3757",
"D  c #5E341B",
"F  c #3E3858",
"G  c #5A361A",
"H  c #603516",
"J  c #57381B",
"K  c #423954",
"L  c #613617",
"P  c #433A55",
"I  c #443B56",
"U  c #633819",
"Y  c #463C57",
"T  c #653A1A",
"R  c #593E19",
"E  c #6B391C",
"W  c #483F4F",
"Q  c #673B1C",
"!  c #4A3E54",
"~  c #6C3A1D",
"^  c #494050",
"/  c #6D3B18",
"(  c #6D3B1E",
")  c #6F3C19",
"_  c #504052",
"`  c #644212",
"'  c #5F4317",
"]  c #4E434E",
"[  c #504450",
"{  c #73401D",
"}  c #514551",
"|  c #75411E",
" . c #774320",
".. c #7C4221",
"X. c #554A4B",
"o. c #7D431C",
"O. c #5A494C",
"+. c #574C4C",
"@. c #80451E",
"#. c #81451F",
"$. c #7C471E",
"%. c #584E4E",
"&. c #5A4E49",
"*. c #7D481F",
"=. c #794A1E",
"-. c #5E514D",
";. c #5F524E",
":. c #615249",
">. c #6C531F",
",. c #695643",
"<. c #6A594B",
"1. c #85581D",
"2. c #8C5820",
"3. c #706040",
"4. c #716141",
"5. c #726242",
"6. c #76643E",
"7. c #82641C",
"8. c #736449",
"9. c #796741",
"0. c #896A22",
"q. c #8A6B23",
"w. c #806C41",
"e. c #826D3C",
"r. c #836E3D",
"t. c #966B28",
"y. c #856F38",
"u. c #846F3E",
"i. c #867039",
"p. c #877241",
"a. c #8D7430",
"s. c #8B743D",
"d. c #A17321",
"f. c #907733",
"g. c #93782E",
"h. c #937A36",
"j. c #967B31",
"k. c #997C24",
"l. c #957C38",
"z. c #987D33",
"x. c #A37B27",
"c. c #9B7F2E",
"v. c #9C802F",
"b. c #A58019",
"n. c #9D8130",
"m. c #A0843A",
"M. c #A48626",
"N. c #A1853B",
"B. c #AC8615",
"V. c #AD882B",
"C. c #A98A2A",
"Z. c #A98B33",
"A. c #AB8C2C",
"S. c #A88F2D",
"D. c #AF8F27",
"F. c #AF8F30",
"G. c #B09029",
"H. c #B09031",
"J. c #B2912A",
"K. c #AC9331",
"L. c #B3922B",
"P. c #B4932C",
"I. c #AF952B",
"U. c #AF9533",
"Y. c #B19624",
"T. c #B5942D",
"R. c #B1962D",
"E. c #B6952E",
"W. c #B19736",
"Q. c #B7962F",
"!. c #B3982F",
"~. c #BB981F",
"^. c #BD9913",
"/. c #B69A28",
"(. c #B59A31",
"). c #B79B29",
"_. c #BB9932",
"`. c #B69B32",
"'. c #BD9A2B",
"]. c #BE9B23",
"[. c #B89C2B",
"{. c #B79C33",
"}. c #B99D2C",
"|. c #C09C24",
" X c #BA9E2D",
".X c #C29E26",
"XX c #BC9F2E",
"oX c #BDA02F",
"OX c #C5A01E",
"+X c #BFA127",
"@X c #C0A228",
"#X c #C7A221",
"$X c #C1A329",
"%X c #C3A420",
"&X c #C2A42B",
"*X c #C4A522",
"=X c #C6A724",
"-X c #CEA80A",
";X c #C7A826",
":X c #CEA81C",
">X c #CFA91D",
",X c #CAAA28",
"<X c #CCAB1E",
"1X c #CEAE21",
"2X c #CFAF22",
"3X c #D5AE24",
"4X c #D7AF19",
"5X c #D3B21A",
"6X c #DBB20C",
"7X c #DAB21E",
"8X c #DDB411",
"9X c #D7B51F",
"0X c #DDB421",
"qX c #E1B700",
"wX c #DEB522",
"eX c #E0B615",
"rX c #D9B722",
"tX c #DBB814",
"yX c #E1B717",
"uX c #DCB916",
"iX c #E2B819",
"pX c #DDBA18",
"aX c #E5BA07",
"sX c #E3B91B",
"dX c #DFBB1A",
"fX c #E6BB0B",
"gX c #E4BA1D",
"hX c #E3BE0C",
"jX c #E7BD0E",
"kX c #E9BE10",
"lX c #EABF13",
"zX c #E6C114",
"xX c #EDC100",
"cX c #EBC015",
"vX c #ECC117",
"bX c #E8C316",
"nX c #EFC302",
"mX c #E9C418",
"MX c #F0C406",
"NX c #F2C509",
"BX c #F3C60D",
"VX c #F4C70F",
"CX c #F5C812",
"ZX c #F8CA00",
"AX c #F7C915",
"SX c #F2CB13",
"DX c #FACB00",
"FX c #FBCD00",
"GX c white",
"HX c white",
"JX c white",
"KX c white",
"LX c white",
"PX c white",
"IX c white",
"UX c None",
/* pixels */
"UXUXUXUXUXUXUXUXUXUXUXUXUXT 8XDXDXDXDXDXDX&X}.}.}.}.}.}.NXDXDXUX",
"UXUXUXUXUXUXUXUXUXUXUXUX$.B.BXDXDXDXDXDXzX}.}.}.}.}.}.@XDXDXDXUX",
"UXUXUXUXUXUXUXUXUXUXUXUXG ~.1X2X0XdXkXmX2XXX}.}.}.}.}.2XDXDXDXUX",
"UXUXUXUXUXUXUXUXUXUXUX| 0./.}.-.u.}.}.oXSX|.SXNXcXgXeX5XdXhXzXUX",
"UXUXUXUXUXUXUXUXUXUX@.J J.}.}.!.Y +.W.9XDXn.&.gXDXDXDX&X}.}.}.UX",
"UXUXUXUXUXUXUXUXUXUX) k.'.}.}.}.W.K n >XDXDXc.c P.DXAX}.}.}.}.UX",
"UXUXUXUXUXUXUXUXUX$.' P.}.}.}.}.}.U.C s |.DXDXA.9 9.iX}.}.}.}.UX",
"UXUXUXUXUXUXUXUXUXD 4XbXkXdX9X3X<X*X*Xk p |.DXDXP.3 [ U.}.}.}.UX",
"UXUXUXUXUXUXUXUX..b.NXDXDXDXDXDXDXNX}.p.$ g P.1X5Xz.$ K E.+X}.UX",
"UXUXUXUXUXUXUX@.Z qXDXDXDXDXDXDXDX7X}.{.g $ X.[.}.XXr.$ [ NXDXUX",
"UXUXUXUXUXUXUX{ ^.BXDXDXDXDXDXDXDX+X}.(.i $ W R.}.,XBXk $ y.DXUX",
"UXUXUXUXUXUX$.` kXDXDXDXDXDXDXDXhX}.}.<.$ $ 6.(.}.rXDXn $ O.NXUX",
"UXUXUXUXUXUXU -XZXDXDXDXDXDXDXDX,XK.%.$ $ :.F.}.}.bXc.$ $ y.BXUX",
"UXUXUXUXUXo.R |.1X5XeXhXvXBXDXgX8.i $ s 5.H.}.}.}.e.* $ &.tXDXUX",
"UXUXUXUX#.b M.[.}.}.}.}.}.m.;.9 $ v 4.Y.>X;X@Xs.S $ $ ,.6XDXDXUX",
"UXUXUXUX .>.E.}.}.}.(.p.! $ $ Y f.8XBXDXAXJ._ $ $ C i.*XwXgXzXUX",
"UXUXUX@.t A.}.}.`.w.z $ 1 } j.fXZXDXxXl.B $ $ ^ e.S.`.}.}.}.}.UX",
"UXUXUX) 7.!.}.Z.K $ $ ] h.R.zXDXNXl.k $ * +.C.aX}.}.}.}.}.}.}.UX",
"UXUX@.h J.}.N.i $ 9 5.F.}.&XDX:XF $ $ &.~.cXDXbX}.}.}.}.}.}.}.UX",
"UX#.( q.[.K.z $ $ 3.R.}.}.uX#Xy $ 1 g.fXDXDXDXrX}.}.}.}.}.}.}.UX",
"UXl M L ~ x $ $ j g.L._.XXyXc $ $ a.xXDXDXDXDX,X}.}.}.}.}.}.}.UX",
"UXe e e 0 $ $ $ = a M H ~ V $ $ B OXlXNXAXDXDXXX}.}.}.}.}.}.}.UX",
"UXt e e > $ $ $ ; e e e r $ $ $ % f M H Q 1.d.t.x.V.T.(.'.}.}.UX",
"UXe e r $ $ $ # 4 e e e 5 $ $ $ : e e e e e e e u d m H E =.2.UX",
"UXUXq 7 $ $ $ @ 8 e e e < $ $ $ - e e e e e e e e e e e e e e UX",
"UXUXUX# $ $ $ O 8 q q e & $ $ $ , e e e e e e e e e e e e e e UX",
"UXUXUX$ $ $ $ . UXUXUXUX$ $ $ $ 2 e e e e e e e e e e e e e e UX",
"UXUXUX$ $ $ $ UXUXUXUXUX$ $ $ $ UXUXUXUXUXUXq t w e e e e e e UX",
"UXUXUX$ $ $ $ UXUXUXUX$ $ $ $ $ UXUXUXUXUXUXUXUXUXUXUXUXUXUX6 UX",
"UXUX$ $ $ $ $ UXUXUXUX$ $ $ $ $ UXUXUXUXUXUXUXUXUXUXUXUXUXUXUXUX",
"UXUX$ $ $ $ $ UXUXUXUX$ $ $ $ $ UXUXUXUXUXUXUXUXUXUXUXUXUXUXUXUX",
"UXUXX       . UXUXUXUXUX        UXUXUXUXUXUXUXUXUXUXUXUXUXUXUXUX"
};
